<?xml version="1.0" standalone="no"?>
<!DOCTYPE svg PUBLIC "-//W3C//DTD SVG 20010904//EN"
 "http://www.w3.org/TR/2001/REC-SVG-20010904/DTD/svg10.dtd">
<svg version="1.0" xmlns="http://www.w3.org/2000/svg"
 width="700.000000pt" height="700.000000pt" viewBox="0 0 700.000000 700.000000"
 preserveAspectRatio="xMidYMid meet">
<metadata>
Created by potrace 1.11, written by Peter Selinger 2001-2013
</metadata>
<g transform="translate(0.000000,700.000000) scale(0.100000,-0.100000)"
fill="#000000" stroke="none">
<path d="M2910 5378 l-95 -48 -21 -73 c-12 -39 -66 -223 -119 -407 -138 -474
-243 -769 -306 -861 -37 -54 -40 -53 164 -54 103 0 187 2 187 5 0 3 -14 18
-30 34 -51 50 -57 149 -15 254 l15 38 233 -1 c127 0 238 -4 244 -8 19 -12 46
-114 44 -169 -1 -53 -20 -99 -57 -133 l-23 -21 198 0 198 0 -28 41 c-77 114
-222 524 -354 1005 -41 147 -128 436 -134 441 -3 3 -49 -17 -101 -43z m75
-493 c26 -83 66 -212 90 -287 l43 -138 -190 0 c-148 0 -189 3 -186 13 22 58
152 473 170 540 7 28 15 42 19 34 4 -7 28 -80 54 -162z"/>
<path d="M3548 5367 c11 -12 28 -38 38 -57 18 -33 19 -71 22 -615 4 -617 1
-654 -44 -720 -13 -20 -24 -37 -24 -38 0 -1 86 -2 190 -3 105 0 190 2 190 3 0
2 -11 20 -25 41 -43 65 -46 110 -43 575 3 424 4 436 24 464 48 65 118 93 243
97 94 3 151 -7 216 -39 89 -43 86 -20 85 -534 -1 -272 -5 -465 -12 -487 -5
-21 -21 -55 -34 -75 -13 -21 -24 -40 -24 -41 0 -2 86 -3 190 -4 105 0 190 1
190 2 0 2 -11 20 -25 40 -14 20 -29 53 -35 73 -6 22 -10 210 -10 471 0 437 -3
472 -38 555 -64 151 -236 238 -472 238 -120 0 -159 -6 -235 -31 -30 -11 -55
-17 -55 -15 0 15 35 82 52 100 l21 22 -203 0 -202 -1 20 -21z"/>
<path d="M2217 3773 c-8 -10 -30 -46 -47 -80 -17 -35 -32 -63 -35 -63 -2 0
-15 4 -30 10 -24 9 -25 11 -10 33 25 38 2 50 -33 17 -35 -32 -28 -55 23 -79
l45 -21 -14 -38 c-8 -20 -19 -65 -25 -99 -20 -124 -137 -251 -182 -197 -17 20
-4 95 26 157 33 65 22 76 -43 40 -28 -15 -53 -26 -55 -23 -3 3 0 24 6 48 8 31
8 48 1 60 -33 51 -111 -19 -99 -89 6 -35 5 -37 -30 -51 -22 -9 -51 -12 -73 -9
l-37 6 -1 75 c-4 256 -141 296 -308 89 -180 -223 -283 -317 -414 -376 -49 -23
-71 -27 -152 -26 -52 0 -104 2 -115 4 -12 3 -20 -2 -23 -13 -7 -33 130 -50
226 -28 143 33 261 126 467 364 121 140 133 151 186 166 40 12 75 -18 84 -71
19 -112 8 -195 -23 -176 -4 3 -27 -3 -50 -13 -51 -23 -85 -73 -77 -114 19
-102 145 -81 177 30 l13 45 77 2 c60 2 81 7 98 22 14 12 36 20 61 20 l40 0 -7
-40 c-11 -57 -6 -118 11 -135 22 -22 97 -17 133 9 17 12 46 44 63 72 l33 49
20 -35 c29 -51 93 -78 171 -72 33 3 77 12 99 22 45 19 141 107 162 148 13 24
13 28 -1 33 -11 5 -33 -13 -72 -55 -63 -70 -113 -100 -181 -108 -133 -15 -194
98 -142 264 12 38 18 44 59 57 84 28 180 46 231 45 57 -2 68 4 50 27 -11 12
-28 15 -84 11 -39 -3 -91 -11 -116 -17 -77 -19 -100 -23 -100 -14 0 5 14 33
30 63 27 49 31 71 11 71 -4 0 -15 -8 -24 -17z m-417 -293 c-16 -31 -23 -19 -9
16 6 16 13 24 16 17 2 -7 -1 -22 -7 -33z m-245 -131 c-3 -10 -8 -29 -11 -41
-10 -36 -35 -58 -65 -58 -59 0 -43 84 21 108 42 15 61 12 55 -9z"/>
<path d="M3518 3753 c-14 -21 -33 -57 -43 -80 -14 -32 -23 -40 -38 -37 -31 5
-43 22 -29 36 14 14 16 38 3 38 -6 0 -22 -11 -37 -24 -27 -23 -27 -24 -11 -49
9 -14 30 -28 47 -32 16 -4 30 -9 30 -11 0 -2 -8 -35 -18 -72 -22 -81 -19 -132
11 -192 47 -94 174 -116 297 -52 33 18 59 28 59 24 -8 -48 28 -79 79 -67 16 3
49 26 73 50 24 25 47 45 51 45 4 0 18 -11 31 -24 22 -22 29 -24 68 -15 24 6
70 28 102 49 33 22 61 40 62 40 2 0 9 -16 15 -35 44 -132 266 -137 381 -8 l34
39 25 -45 c36 -64 78 -86 165 -86 81 1 142 25 189 74 27 28 55 43 42 23 -10
-16 24 -71 53 -86 53 -28 108 -14 172 41 27 24 47 31 96 36 34 4 86 16 115 27
29 11 55 20 58 20 3 0 6 -19 7 -41 1 -30 8 -49 27 -68 49 -48 155 -27 204 41
9 12 26 18 55 18 46 0 121 18 179 43 35 15 38 14 62 -7 26 -21 26 -22 6 -38
-40 -35 -38 -106 4 -133 65 -43 145 -14 167 60 7 25 -19 73 -44 81 -31 10 -8
21 102 48 110 26 125 34 112 54 -9 15 -77 4 -204 -35 -82 -25 -89 -25 -105
-10 -15 16 -15 18 6 33 26 18 44 50 48 82 2 16 -5 26 -22 34 -48 22 -121 -39
-116 -97 1 -18 -8 -27 -47 -44 -27 -11 -73 -23 -104 -27 l-55 -7 -1 57 c0 64
-21 108 -59 126 -21 9 -34 7 -78 -15 -29 -14 -63 -38 -76 -53 -45 -54 -177
-112 -252 -112 l-31 0 0 59 c-1 66 -21 106 -61 121 -32 13 -100 -18 -146 -66
-18 -18 -37 -34 -41 -34 -4 0 -34 -28 -65 -62 -150 -161 -330 -139 -338 42 -2
48 20 138 39 157 19 19 166 54 246 59 41 2 76 6 79 8 2 3 2 13 -2 22 -6 15
-17 16 -89 11 -45 -4 -112 -15 -149 -26 l-68 -19 14 31 c7 18 22 49 31 69 10
21 15 41 11 45 -14 14 -40 -14 -76 -82 -36 -68 -59 -85 -80 -60 -8 10 -8 19 2
34 15 25 6 36 -19 23 -10 -5 -53 -13 -96 -16 -42 -3 -109 -15 -147 -25 -39
-11 -70 -15 -70 -10 0 5 14 35 30 66 22 41 27 60 19 67 -13 14 -47 -27 -83
-101 -27 -53 -38 -61 -65 -44 -12 8 -13 15 -4 34 15 31 8 39 -22 25 -50 -23
-42 -69 15 -92 l39 -16 -13 -32 c-8 -18 -17 -53 -21 -78 -8 -48 -9 -49 -99
-110 -87 -59 -123 -52 -107 21 14 61 0 104 -37 117 -58 20 -110 -5 -195 -98
-92 -97 -129 -120 -208 -128 -92 -9 -149 46 -154 147 -2 50 19 139 38 158 19
20 204 63 269 63 51 0 59 2 56 18 -3 14 -15 17 -78 17 -43 1 -103 -7 -140 -17
-94 -26 -95 -26 -60 40 16 31 30 63 30 70 0 25 -28 11 -52 -25z m1133 -129
c16 -15 29 -24 29 -21 0 4 9 3 19 -3 18 -9 18 -13 6 -54 -8 -24 -16 -58 -18
-75 -14 -84 -147 -190 -240 -191 -50 0 -102 23 -122 54 -27 41 -31 141 -8 206
l19 54 101 26 c143 37 179 38 214 4z m677 -126 c10 -13 15 -51 13 -96 -1 -19
-5 -22 -23 -17 -38 12 -69 46 -62 69 14 47 51 69 72 44z m503 -15 c12 -31 8
-95 -6 -100 -6 -2 -25 6 -42 17 -39 23 -43 53 -11 87 28 30 46 29 59 -4z m330
-16 c-29 -30 -39 -12 -10 19 14 15 25 20 27 14 3 -7 -5 -21 -17 -33z m-2151
-21 c0 -34 -60 -110 -121 -152 -31 -21 -42 -24 -53 -15 -44 37 70 191 140 191
29 0 34 -3 34 -24z m1248 -72 c18 -13 38 -25 45 -28 18 -8 -47 -61 -78 -64
-34 -3 -64 14 -74 41 -9 23 6 70 36 116 l16 25 11 -34 c6 -20 25 -44 44 -56z
m464 30 c5 -12 28 -32 51 -44 l40 -23 -29 -23 c-56 -45 -115 -40 -135 13 -12
32 -4 58 30 103 22 30 26 32 29 15 2 -11 8 -30 14 -41z m516 -104 c36 -22 36
-21 21 -54 -14 -31 -38 -37 -78 -20 -27 11 -31 17 -26 36 8 24 34 58 44 58 3
0 21 -9 39 -20z"/>
<path d="M3075 3613 c-11 -2 -67 -20 -125 -38 -58 -18 -122 -36 -142 -40 -36
-7 -38 -6 -38 19 0 16 -6 26 -15 26 -20 0 -34 -31 -24 -57 17 -45 82 -42 248
13 111 36 138 40 189 29 25 -6 32 -4 32 8 0 8 -6 19 -13 25 -16 13 -84 23
-112 15z"/>
<path d="M3066 3503 c-4 -17 -10 -123 -7 -150 0 -7 9 -13 19 -14 9 0 -3 -7
-28 -14 -25 -8 -54 -19 -65 -24 -32 -16 -155 -61 -181 -65 -28 -5 -44 10 -44
44 0 17 -29 11 -39 -8 -13 -24 10 -59 46 -73 38 -14 162 20 298 82 11 5 42 11
68 13 55 4 81 21 57 37 -8 5 -32 8 -52 7 -38 -4 -51 5 -23 16 21 8 55 66 55
94 0 51 -91 99 -104 55z m57 -64 c-3 -10 -9 -19 -14 -19 -11 0 -12 44 -2 53
10 11 21 -13 16 -34z"/>
<path d="M2997 3492 c-2 -4 -7 -19 -11 -35 l-6 -27 -22 20 c-34 31 -41 16 -39
-83 1 -50 4 -58 19 -55 10 2 18 14 20 32 4 28 4 28 18 7 12 -17 42 -29 45 -18
0 1 2 36 5 78 4 63 3 77 -10 82 -8 3 -17 3 -19 -1z"/>
<path d="M2815 3448 c-2 -7 -8 -46 -13 -86 -7 -59 -6 -75 5 -79 14 -6 27 2 29
18 1 5 2 14 3 19 2 18 19 10 24 -11 3 -12 11 -19 19 -16 18 6 13 80 -9 125
-18 38 -49 54 -58 30z"/>
<path d="M2355 2977 c27 -38 47 -90 54 -142 3 -27 6 -295 5 -595 -1 -582 -1
-592 -51 -657 -13 -18 -23 -34 -21 -34 2 -1 89 -2 195 -3 l191 -1 -19 27 c-50
70 -53 86 -54 387 l-2 284 21 -25 c12 -14 57 -72 101 -129 44 -57 119 -155
167 -217 118 -150 158 -212 179 -275 l18 -52 190 0 c105 0 191 1 191 2 0 1
-19 15 -42 31 -52 36 -186 172 -262 265 -64 79 -202 271 -265 369 -50 78 -54
59 57 223 82 119 183 254 246 325 68 76 208 209 228 215 49 16 2 22 -171 23
l-189 0 -7 -34 c-8 -46 -61 -134 -137 -231 -35 -43 -119 -154 -188 -246 -69
-91 -128 -166 -131 -166 -3 -1 -5 124 -4 277 1 268 2 278 24 322 13 25 30 52
38 62 13 15 0 16 -182 16 l-196 0 16 -21z"/>
<path d="M3550 2975 c12 -12 30 -45 40 -74 19 -48 20 -79 20 -489 0 -460 3
-490 47 -577 46 -90 156 -166 288 -200 61 -16 230 -21 314 -9 25 3 68 15 98
25 29 10 53 16 53 13 0 -10 -43 -95 -51 -100 -26 -16 8 -19 181 -19 105 0 190
1 190 2 0 1 -11 19 -25 39 -14 20 -29 53 -35 73 -6 22 -10 256 -10 613 0 618
2 640 51 694 10 11 19 23 19 26 0 3 -85 6 -190 5 -104 0 -190 -2 -190 -4 0 -3
8 -17 19 -31 47 -67 49 -90 49 -553 0 -398 -1 -439 -18 -476 -35 -78 -117
-114 -261 -115 -127 0 -200 21 -251 72 l-38 38 0 461 c0 433 1 464 20 512 10
29 29 62 40 74 l21 22 -201 0 -200 0 20 -22z"/>
</g>
</svg>
